<?xml version="1.0" encoding="UTF-8" standalone="no"?>
<svg
   xmlns:dc="http://purl.org/dc/elements/1.1/"
   xmlns:cc="http://creativecommons.org/ns#"
   xmlns:rdf="http://www.w3.org/1999/02/22-rdf-syntax-ns#"
   xmlns:svg="http://www.w3.org/2000/svg"
   xmlns="http://www.w3.org/2000/svg"
   xmlns:sodipodi="http://sodipodi.sourceforge.net/DTD/sodipodi-0.dtd"
   xmlns:inkscape="http://www.inkscape.org/namespaces/inkscape"
   width="150mm"
   height="13.5mm"
   viewBox="0 0 150 13.5"
   version="1.1"
   id="svg1737"
   inkscape:version="1.0.2-2 (e86c870879, 2021-01-15)"
   sodipodi:docname="logo.svg"
   inkscape:export-filename="C:\Users\usuario\Desktop\Carnet Ultimo.png"
   inkscape:export-xdpi="96"
   inkscape:export-ydpi="96">
  <defs
     id="defs1731">
    <clipPath
       clipPathUnits="userSpaceOnUse"
       id="clipPath2501-4">
      <circle
         r="29.587269"
         cy="228.52554"
         cx="-28.437479"
         id="circle2503-4"
         style="opacity:1;fill:#88aade;fill-opacity:1;stroke:none;stroke-width:0.678473;stroke-miterlimit:4;stroke-dasharray:none;stroke-opacity:1" />
    </clipPath>
    <clipPath
       clipPathUnits="userSpaceOnUse"
       id="clipPath2501-6">
      <circle
         r="29.587269"
         cy="228.52554"
         cx="-28.437479"
         id="circle2503-45"
         style="opacity:1;fill:#88aade;fill-opacity:1;stroke:none;stroke-width:0.678473;stroke-miterlimit:4;stroke-dasharray:none;stroke-opacity:1" />
    </clipPath>
    <clipPath
       clipPathUnits="userSpaceOnUse"
       id="clipPath1067">
      <rect
         y="214.2"
         x="0"
         height="82.800003"
         width="51.380001"
         id="rect1069"
         style="opacity:1;fill:#ffffff;fill-opacity:1;stroke:none;stroke-width:0.189696;stroke-linecap:round;stroke-linejoin:round;stroke-miterlimit:4;stroke-dasharray:none;stroke-opacity:1;paint-order:stroke markers fill" />
    </clipPath>
    <clipPath
       clipPathUnits="userSpaceOnUse"
       id="clipPath1305">
      <circle
         r="15.2395"
         cy="242.94597"
         cx="25.690001"
         id="circle1307"
         style="opacity:1;fill:#88aade;fill-opacity:0.599174;stroke:none;stroke-width:0.349461;stroke-miterlimit:4;stroke-dasharray:none;stroke-opacity:1" />
    </clipPath>
  </defs>
  <sodipodi:namedview
     id="base"
     pagecolor="#ffffff"
     bordercolor="#666666"
     borderopacity="1.0"
     inkscape:pageopacity="0.0"
     inkscape:pageshadow="2"
     inkscape:zoom="1.4142136"
     inkscape:cx="271.21503"
     inkscape:cy="9.130108"
     inkscape:document-units="mm"
     inkscape:current-layer="layer1"
     showgrid="false"
     inkscape:window-width="1440"
     inkscape:window-height="837"
     inkscape:window-x="-8"
     inkscape:window-y="-8"
     inkscape:window-maximized="1"
     units="mm"
     inkscape:document-rotation="0" />
  <metadata
     id="metadata1734">
    <rdf:RDF>
      <cc:Work
         rdf:about="">
        <dc:format>image/svg+xml</dc:format>
        <dc:type
           rdf:resource="http://purl.org/dc/dcmitype/StillImage" />
        <dc:title></dc:title>
      </cc:Work>
    </rdf:RDF>
  </metadata>
  <g
     inkscape:label="Capa 1"
     inkscape:groupmode="layer"
     id="layer1"
     transform="translate(0,-283.12419)">
    <g
       id="g2405"
       transform="matrix(1.7240412,0,0,1.7240412,-131.92938,13.311375)">
      <g
         id="text938-0-3-9-2-4-9"
         style="font-style:italic;font-variant:normal;font-weight:normal;font-stretch:condensed;font-size:4.21519px;line-height:1.25;font-family:Roboto;-inkscape-font-specification:'Roboto Italic Condensed';letter-spacing:3.78811px;word-spacing:0px;fill:#666666;fill-opacity:1;stroke:none;stroke-width:0.0987934"
         aria-label="telecom" />
      <g
         transform="matrix(1.4275546,0,0,1.4275546,-32.729675,-70.25771)"
         id="g1558">
        <path
           inkscape:connector-curvature="0"
           style="color:#000000;font-style:normal;font-variant:normal;font-weight:normal;font-stretch:normal;font-size:medium;line-height:normal;font-family:sans-serif;font-variant-ligatures:normal;font-variant-position:normal;font-variant-caps:normal;font-variant-numeric:normal;font-variant-alternates:normal;font-feature-settings:normal;text-indent:0;text-align:start;text-decoration:none;text-decoration-line:none;text-decoration-style:solid;text-decoration-color:#000000;letter-spacing:normal;word-spacing:normal;text-transform:none;writing-mode:lr-tb;direction:ltr;text-orientation:mixed;dominant-baseline:auto;baseline-shift:baseline;text-anchor:start;white-space:normal;shape-padding:0;clip-rule:nonzero;display:inline;overflow:visible;visibility:visible;opacity:1;isolation:auto;mix-blend-mode:normal;color-interpolation:sRGB;color-interpolation-filters:linearRGB;solid-color:#000000;solid-opacity:1;vector-effect:none;fill:#2c5aa0;fill-opacity:1;fill-rule:nonzero;stroke:none;stroke-width:1.36441;stroke-linecap:round;stroke-linejoin:round;stroke-miterlimit:4;stroke-dasharray:none;stroke-dashoffset:0;stroke-opacity:1;color-rendering:auto;image-rendering:auto;shape-rendering:auto;text-rendering:auto;enable-background:accumulate"
           d="m 303.57227,233.75586 c -0.24805,0.0113 -0.49648,0.0979 -0.70899,0.25781 -0.0516,0.0302 -0.15715,0.0934 -0.24219,0.19922 -0.008,0.0113 -0.0162,0.018 -0.0234,0.0293 -0.005,0.008 -0.0133,0.0156 -0.0137,0.0156 l -0.0156,0.0234 c -0.17885,0.27893 -0.15639,0.45244 -0.17578,0.73828 -0.0193,0.28573 -0.0303,0.69635 -0.0371,1.35742 -0.0132,1.32208 -0.008,3.62487 -0.008,7.71485 0,3.76119 -0.0102,6.02911 0,7.40429 0.0102,1.37518 -0.0149,1.76502 0.11718,2.20703 0.0185,0.0627 0.0466,0.12098 0.082,0.17579 0.0654,0.10053 0.14612,0.19116 0.22851,0.26562 0.034,0.0302 0.0718,0.0586 0.11133,0.082 0.0896,0.0533 0.0777,0.0474 0.0293,0.0156 0.61079,0.40894 1.43969,0.20753 1.80859,-0.42188 l 0.0879,-0.14648 c 0.0476,-0.0816 0.077,-0.17189 0.0879,-0.26563 0.001,-0.008 0.0111,-0.0535 0.0156,-0.11132 6.5e-4,-0.0189 6.5e-4,-0.035 0,-0.0527 v -0.35352 l -0.008,-8.82031 -0.0137,-8.26172 c 6e-5,-0.004 6e-5,-0.01 0,-0.0137 -0.0125,-0.6082 -0.0197,-0.91687 -0.0742,-1.18945 -0.0197,-0.096 -0.0611,-0.18663 -0.11914,-0.26563 l -0.0293,-0.0371 c -0.11944,-0.16743 -0.21305,-0.25934 -0.38672,-0.35156 -0.16585,-0.16781 -0.45946,-0.19493 -0.6836,-0.19531 l 0.0156,0.0234 c -0.0147,3e-5 -0.0224,-0.0234 -0.0371,-0.0234 z m -3.24024,4.42578 v 0.002 c -0.0223,0.001 -0.0444,0.004 -0.0664,0.008 -0.0223,0.001 -0.0444,0.004 -0.0664,0.008 -0.003,2.3e-4 -0.005,-3e-4 -0.008,0 -0.0215,0.002 -0.0328,0.003 -0.0586,0.008 -0.002,4.2e-4 0.002,0.008 0,0.008 -0.006,0.001 -0.01,0.008 -0.0156,0.008 -0.20788,0.0692 -0.48005,0.15546 -0.62305,0.35351 -0.20398,0.18444 -0.31949,0.36835 -0.38086,0.66406 -0.0381,0.18293 -0.0173,0.19502 -0.0215,0.30274 -0.004,0.11036 -0.0126,0.24942 -0.0156,0.42773 -1e-5,0.003 -1e-5,0.004 0,0.008 l -0.006,4.08203 c -1.6e-4,0.0775 2.2e-4,0.12457 0,0.19336 0.006,2.29039 0.01,3.44294 0.0215,4.05859 0.006,0.30765 0.0115,0.47992 0.0293,0.62891 0.0178,0.14891 0.10387,0.37875 0.13282,0.42773 0.12302,0.20825 0.21149,0.29862 0.41406,0.43555 0.002,0.003 0.005,0.004 0.008,0.008 0.40433,0.26797 0.69189,0.27064 1.10742,0.14062 0.005,-0.002 0.008,0.002 0.0137,0 0.0276,-0.008 0.0557,-0.0199 0.082,-0.0312 0.0698,-0.034 0.12924,-0.0699 0.18359,-0.10352 0.0178,-0.0113 0.0362,-0.022 0.0527,-0.0371 0.20554,-0.15836 0.34068,-0.31441 0.44922,-0.56836 0.0215,-0.0522 0.0369,-0.10617 0.0449,-0.16211 -0.006,0.0378 -0.008,0.0335 0,-0.0156 0.003,-0.0113 0.006,-0.0258 0.008,-0.0371 0.0501,-0.45007 0.0353,-1.30467 0.043,-4.85743 l 0.008,-2.95312 c 1e-5,-0.003 1e-5,-0.004 0,-0.008 -6.7e-4,-0.21657 0.001,-0.42444 0,-0.59766 -0.009,-1.04942 0.0437,-1.30732 -0.16992,-1.73437 -0.0125,-0.0302 -0.0263,-0.0615 -0.043,-0.0898 -0.0602,-0.0866 -0.13173,-0.16628 -0.21485,-0.24414 -0.0144,-0.0151 -0.0297,-0.0258 -0.0449,-0.0371 -0.2973,-0.23622 -0.52308,-0.29492 -0.86328,-0.29492 z m -6.47461,0.01 c -0.003,3e-5 -0.003,0.008 -0.006,0.008 -0.22639,0.004 -0.57087,0.10877 -0.74609,0.24219 8.5e-4,-6.5e-4 -0.067,0.0164 -0.19922,0.15625 -0.13221,0.13833 -0.21801,0.34815 -0.25195,0.50976 -0.0679,0.32315 -0.0673,0.67021 -0.0742,1.46875 -2e-5,0.003 -2e-5,0.005 0,0.008 -0.004,0.71906 -0.006,1.81569 -0.006,3.51368 v 0.0137 c 0,2.34535 -0.005,3.52684 0.006,4.15625 0.005,0.31483 0.0142,0.4846 0.0312,0.63476 0.017,0.15005 0.0858,0.3498 0.10937,0.39844 0.11543,0.23811 0.18325,0.35202 0.46485,0.52539 0.46799,0.29292 0.92075,0.28749 1.38086,-0.0156 -0.007,0.004 0.0341,-0.007 0.14843,-0.0957 0.0207,-0.0161 0.0399,-0.0344 0.0586,-0.0527 0.0132,-0.0113 0.0538,-0.047 0.10351,-0.10938 0.0158,-0.0188 0.0312,-0.0401 0.0449,-0.0605 0.27257,-0.4193 0.19966,-0.66104 0.21289,-1.39453 0.0132,-0.7335 0.008,-1.94185 0.008,-4.00782 v -4.50976 c 1.2e-4,-0.008 1.2e-4,-0.0159 0,-0.0234 -0.006,-0.18179 -0.0144,-0.28907 -0.0371,-0.41406 -0.0154,-0.0949 -0.0508,-0.18532 -0.10352,-0.26563 l -0.0664,-0.0957 c -0.10689,-0.15685 -0.24411,-0.31978 -0.44922,-0.43555 -0.10031,-0.0567 -0.15736,-0.0859 -0.26367,-0.10937 -0.0976,-0.0523 -0.25449,-0.0441 -0.36524,-0.0449 z m 12.96289,0 c -0.37455,0.0189 -0.73544,0.2038 -0.97461,0.51757 l -0.0723,0.0957 c -0.0493,0.0642 -0.0874,0.13558 -0.11133,0.21289 -0.0537,0.1765 -0.0579,0.30027 -0.0664,0.53906 -1.2e-4,0.008 -1.2e-4,0.0159 0,0.0234 l -0.008,4.41406 c 1.2e-4,0.0593 -1.3e-4,0.0831 0,0.14844 l 0.008,4.45703 c -1.2e-4,0.008 -1.2e-4,0.0159 0,0.0234 0.006,0.16289 0.0159,0.2685 0.0371,0.38476 0.0208,0.11641 0.0779,0.25826 0.0957,0.29492 0.11486,0.23774 0.18267,0.3577 0.46484,0.53125 0.62591,0.38654 1.39751,0.19846 1.7793,-0.42773 0.0355,-0.0582 0.12426,-0.29373 0.14062,-0.44336 0.0163,-0.14967 0.0244,-0.32275 0.0293,-0.64258 0.0102,-0.63934 0.007,-1.84051 0.008,-4.20117 10e-5,-2.63168 0.006,-3.84468 -0.0234,-4.48633 -0.0147,-0.32088 -0.0177,-0.50245 -0.125,-0.7539 -0.0537,-0.12586 -0.16017,-0.25695 -0.23633,-0.32422 -0.0762,-0.0673 -0.0914,-0.0772 -0.0879,-0.0742 -0.24086,-0.20561 -0.55411,-0.29996 -0.84961,-0.28711 z m -9.66992,2.39257 c -0.003,-1.1e-4 -0.004,0.006 -0.008,0.006 -0.42343,-0.008 -0.83883,0.20289 -1.09961,0.55469 -0.0306,0.0412 -0.12198,0.19395 -0.1543,0.31641 -0.0321,0.12245 -0.0377,0.21663 -0.0449,0.33984 -0.0144,0.2468 -0.017,0.62845 -0.0215,1.36524 l -0.008,0.89453 c -10e-6,0.003 -10e-6,0.004 0,0.008 v 0.0215 0.0391 c -10e-6,0.003 -10e-6,0.002 0,0.006 l 0.0137,2.03125 c -2.2e-4,0.0113 -2.2e-4,0.0179 0,0.0293 0.0136,0.28158 0.0241,0.47975 0.12696,0.7168 0.1028,0.23698 0.30636,0.40468 0.375,0.45703 0.59593,0.45456 1.48334,0.27615 1.875,-0.35352 l 0.0605,-0.0879 c 0.0431,-0.0703 0.0725,-0.1492 0.0879,-0.23046 0.0497,-0.24265 0.0388,-0.41457 0.0449,-0.87696 1e-5,-0.003 1e-5,-0.004 0,-0.008 v -1.69922 c 0,-1.17271 0.003,-1.76826 -0.008,-2.11719 -0.006,-0.17461 -0.0129,-0.28491 -0.0371,-0.41406 -0.0234,-0.12586 -0.0963,-0.28617 -0.12696,-0.33984 -0.10291,-0.17537 -0.18347,-0.26242 -0.33008,-0.38477 -0.18943,-0.17764 -0.5008,-0.26468 -0.74609,-0.27148 z m -6.63672,0.004 v 0.002 c -0.1926,0.003 -0.47953,0.10851 -0.61133,0.19922 -0.2084,0.14287 -0.29708,0.23033 -0.42187,0.46485 -0.0415,0.0775 -0.0935,0.23528 -0.11133,0.35547 -0.0178,0.12018 -0.0244,0.24141 -0.0293,0.41992 -0.0102,0.35678 -0.0137,0.95168 -0.0137,2.08203 v 2.28906 c 0.002,0.0174 0.005,0.0336 0.008,0.0508 0.007,0.0949 0.022,0.18065 0.0371,0.24414 0.0177,0.0816 0.05,0.15868 0.0957,0.22852 l 0.0664,0.10351 c 0.10598,0.15572 0.17351,0.24102 0.34571,0.36914 0.22548,0.16706 0.41811,0.20181 0.61328,0.22071 0.19517,0.0189 0.39346,0.0192 0.64258,-0.0957 0.29983,-0.1387 0.5052,-0.35412 0.64257,-0.64843 0.0218,-0.0424 0.0383,-0.0868 0.0508,-0.13282 0.0306,-0.13303 0.0432,-0.26223 0.0527,-0.41406 6e-5,-0.005 6e-5,-0.0106 0,-0.0156 0.0147,-0.3837 0.0211,-1.09757 0.0215,-2.19922 v -0.008 -0.008 -0.0156 c 2e-5,-1.25991 0.005,-1.85741 -0.0293,-2.25781 -0.0174,-0.20032 -0.045,-0.37943 -0.14063,-0.56836 -0.0956,-0.18898 -0.22665,-0.30382 -0.27344,-0.34766 -0.003,-1e-5 -0.005,-1e-5 -0.008,0 -0.15031,-0.13984 -0.48547,-0.25876 -0.72265,-0.28711 -0.0151,-0.002 -0.0309,-0.0234 -0.0449,-0.0234 -0.0621,-0.004 -0.11439,-0.008 -0.14648,-0.008 h -0.008 c -0.003,-1e-5 -0.005,-1e-5 -0.008,0 -0.003,-1e-5 -0.005,-1e-5 -0.008,0 z m 19.57031,0.89649 c -0.0125,0.002 -0.025,0.004 -0.0371,0.008 -0.19363,0.0302 -0.4386,0.0546 -0.61719,0.17969 -0.2123,0.15344 -0.30224,0.25293 -0.45313,0.50585 -0.0389,0.0661 -0.0672,0.13964 -0.082,0.21485 -0.04,0.19427 -0.0371,0.33579 -0.043,0.61914 -5e-5,0.004 -5e-5,0.0118 0,0.0156 v 1.0625 0.0156 c 0,1.17222 -0.10863,1.48281 0.16992,2 0.0193,0.034 0.0415,0.0655 0.0664,0.0957 0.0917,0.11792 0.16864,0.18777 0.26563,0.26563 0.0121,0.0113 0.0242,0.0199 0.0371,0.0312 -0.006,-0.004 0.002,0.004 0.006,0.008 0.62436,0.44496 1.47127,0.23666 1.85352,-0.41406 0.0302,-0.0514 0.0914,-0.17776 0.11914,-0.29492 0.0276,-0.11717 0.0369,-0.21512 0.043,-0.33985 0.0121,-0.24945 0.008,-0.62224 0.008,-1.34375 0,-0.72143 0.005,-1.09407 -0.008,-1.34375 -0.006,-0.12472 -0.0153,-0.22343 -0.043,-0.33984 -0.0246,-0.1047 -0.0713,-0.20629 -0.10352,-0.26563 -0.001,-0.002 -0.007,0.002 -0.008,0 -0.22616,-0.43185 -0.61286,-0.67773 -1.10742,-0.67773 -0.0223,-0.001 -0.0443,-0.001 -0.0664,0 z"
           transform="matrix(0.26458333,0,0,0.26458333,0,97)"
           id="path2350-8"
           inkscape:export-xdpi="96"
           inkscape:export-ydpi="96" />
        <path
           inkscape:connector-curvature="0"
           id="path1100-5-1-2"
           d="m 90.779553,159.02852 c -0.314302,1e-5 -0.56816,0.0846 -0.761578,0.25387 -0.193442,0.16926 -0.353011,0.38929 -0.478743,0.6601 l -1.109827,2.40822 c -0.02419,0.0629 -0.06527,0.0943 -0.123289,0.0943 -0.05804,0 -0.09914,-0.0314 -0.123326,-0.0943 l -1.109826,-2.40822 c -0.125731,-0.27081 -0.287732,-0.49084 -0.485999,-0.6601 -0.116146,-0.10162 -0.254615,-0.17071 -0.413366,-0.21019 v 1.9139 l 1.305524,2.70656 c 0.07737,0.15474 0.191001,0.2684 0.340918,0.34094 0.149908,0.0725 0.311908,0.10879 0.486001,0.10879 0.174093,0 0.336069,-0.0363 0.485975,-0.10879 0.149908,-0.0725 0.263584,-0.1862 0.340957,-0.34094 l 1.486947,-3.08284 c 0.01451,-0.0387 0.04599,-0.058 0.09435,-0.058 0.02902,0 0.0556,0.012 0.07978,0.0363 0.02417,0.0193 0.03628,0.0507 0.03627,0.0943 v 1.48572 0.10156 0 1.24006 0.008 a 0.62923433,0.62923433 0 0 0 0.0015,0.0396 0.62923433,0.62923433 0 0 0 0.0076,0.0624 0.62923433,0.62923433 0 0 0 0.01376,0.0614 0.62923433,0.62923433 0 0 0 0.01984,0.0597 0.62923433,0.62923433 0 0 0 0.0257,0.0574 0.62923433,0.62923433 0 0 0 0.03128,0.0546 0.62923433,0.62923433 0 0 0 0.0366,0.0512 0.62923433,0.62923433 0 0 0 0.0415,0.0473 0.62923433,0.62923433 0 0 0 0.04603,0.0429 0.62923433,0.62923433 0 0 0 0.05007,0.0381 0.62923433,0.62923433 0 0 0 0.05362,0.0329 0.62923433,0.62923433 0 0 0 0.05663,0.0274 0.62923433,0.62923433 0 0 0 0.05907,0.0216 0.62923433,0.62923433 0 0 0 0.06096,0.0155 0.62923433,0.62923433 0 0 0 0.06218,0.009 0.62923433,0.62923433 0 0 0 0.06212,0.003 h 0.0016 0.632112 0.672211 3.800941 c 0.290138,0 0.534372,-0.0459 0.732639,-0.13783 0.203106,-0.0919 0.372337,-0.21517 0.507744,-0.36991 0.11122,-0.13057 0.198267,-0.27808 0.261139,-0.4425 0.0677,-0.16442 0.101547,-0.3361 0.101547,-0.51503 0,-0.19342 -0.03869,-0.37718 -0.116046,-0.55127 -0.07255,-0.17409 -0.174081,-0.32883 -0.30465,-0.46424 -0.130558,-0.1354 -0.29257,-0.24176 -0.486001,-0.31915 -0.188592,-0.0822 -0.420746,-0.12331 -0.696372,-0.12331 h -2.154363 c -0.07737,0 -0.137801,-0.005 -0.181324,-0.0145 -0.03869,-0.0145 -0.07253,-0.0339 -0.101545,-0.058 -0.08221,-0.0677 -0.123315,-0.15474 -0.123315,-0.26114 0,-0.007 0.0013,-0.0128 0.0016,-0.0194 h -1.364056 c 0.01434,0.14224 0.04736,0.27699 0.100219,0.40384 0.07252,0.16924 0.174105,0.32157 0.304676,0.45696 0.130558,0.13541 0.294963,0.24421 0.493231,0.32642 0.203104,0.0774 0.469094,0.11609 0.797918,0.11609 h 1.994779 c 0.09671,0 0.169231,0.01 0.217592,0.029 0.0532,0.0145 0.09673,0.0411 0.130582,0.0798 0.06771,0.0677 0.101547,0.15476 0.101547,0.26114 0,0.0871 -0.02662,0.162 -0.0798,0.22487 -0.03386,0.0387 -0.07979,0.0701 -0.137826,0.0943 -0.0532,0.0193 -0.130545,0.029 -0.232092,0.029 H 92.764582 92.09236 v -0.61785 -0.10156 0 -1.71782 c 0,-0.27564 -0.04109,-0.50295 -0.123315,-0.68188 -0.07737,-0.17891 -0.188618,-0.3264 -0.333688,-0.44245 -0.11122,-0.0871 -0.239347,-0.15717 -0.384415,-0.21037 -0.140219,-0.058 -0.29737,-0.087 -0.471439,-0.0871 z m 3.559274,0 c -0.328826,0 -0.59241,0.0411 -0.790689,0.12332 -0.198267,0.0774 -0.362673,0.18375 -0.493231,0.31914 -0.13057,0.13541 -0.234548,0.29015 -0.311906,0.46424 -0.07255,0.1741 -0.10879,0.36028 -0.10879,0.55855 0,0.0551 0.0032,0.10897 0.0086,0.16194 h 1.364056 c 0.0042,-0.0927 0.03665,-0.17128 0.09986,-0.23448 0.02901,-0.029 0.06529,-0.0508 0.108814,-0.0653 0.04836,-0.0194 0.113614,-0.0291 0.195824,-0.0291 h 0.463388 2.412772 a 0.64919909,0.64919909 0 0 0 0.04592,-0.002 0.64919909,0.64919909 0 0 0 0.0644,-0.008 0.64919909,0.64919909 0 0 0 0.06332,-0.0142 0.64919909,0.64919909 0 0 0 0.06158,-0.0205 0.64919909,0.64919909 0 0 0 0.05924,-0.0265 0.64919909,0.64919909 0 0 0 0.05629,-0.0323 0.64919909,0.64919909 0 0 0 0.05277,-0.0378 0.64919909,0.64919909 0 0 0 0.04878,-0.0428 0.64919909,0.64919909 0 0 0 0.04424,-0.0475 0.64919909,0.64919909 0 0 0 0.03924,-0.0516 0.64919909,0.64919909 0 0 0 0.03392,-0.0554 0.64919909,0.64919909 0 0 0 0.02823,-0.0584 0.64919909,0.64919909 0 0 0 0.02226,-0.061 0.64919909,0.64919909 0 0 0 0.01605,-0.0629 0.64919909,0.64919909 0 0 0 0.0097,-0.0642 0.64919909,0.64919909 0 0 0 0.0032,-0.0648 0.64919909,0.64919909 0 0 0 -0.0016,-0.0459 0.64919909,0.64919909 0 0 0 -0.0078,-0.0644 0.64919909,0.64919909 0 0 0 -0.01419,-0.0633 0.64919909,0.64919909 0 0 0 -0.02047,-0.0616 0.64919909,0.64919909 0 0 0 -0.02652,-0.0592 0.64919909,0.64919909 0 0 0 -0.0323,-0.0563 0.64919909,0.64919909 0 0 0 -0.03774,-0.0528 0.64919909,0.64919909 0 0 0 -0.0428,-0.0488 0.64919909,0.64919909 0 0 0 -0.0475,-0.0442 0.64919909,0.64919909 0 0 0 -0.05166,-0.0393 0.64919909,0.64919909 0 0 0 -0.05531,-0.0339 0.64919909,0.64919909 0 0 0 -0.05842,-0.0282 0.64919909,0.64919909 0 0 0 -0.06096,-0.0223 0.64919909,0.64919909 0 0 0 -0.06288,-0.0161 0.64919909,0.64919909 0 0 0 -0.06415,-0.01 0.64919909,0.64919909 0 0 0 -0.06482,-0.003 h -2.412748 z m -11.226881,0.009 a 0.70869769,0.70869769 0 0 0 -0.0078,0.001 0.70869769,0.70869769 0 0 0 -0.06914,0.0155 0.70869769,0.70869769 0 0 0 -0.0672,0.0224 0.70869769,0.70869769 0 0 0 -0.06468,0.0289 0.70869769,0.70869769 0 0 0 -0.06145,0.0352 0.70869769,0.70869769 0 0 0 -0.05761,0.0412 0.70869769,0.70869769 0 0 0 -0.05325,0.0468 0.70869769,0.70869769 0 0 0 -0.04828,0.0518 0.70869769,0.70869769 0 0 0 -0.04288,0.0564 0.70869769,0.70869769 0 0 0 -0.03701,0.0604 0.70869769,0.70869769 0 0 0 -0.03082,0.0638 0.70869769,0.70869769 0 0 0 -0.0243,0.0666 0.70869769,0.70869769 0 0 0 -0.01753,0.0686 0.70869769,0.70869769 0 0 0 -0.01054,0.0701 0.70869769,0.70869769 0 0 0 -0.0035,0.0707 0.70869769,0.70869769 0 0 0 0.0017,0.0502 0.70869769,0.70869769 0 0 0 0.0086,0.0703 0.70869769,0.70869769 0 0 0 0.0155,0.0692 0.70869769,0.70869769 0 0 0 0.02234,0.0673 0.70869769,0.70869769 0 0 0 0.02894,0.0646 0.70869769,0.70869769 0 0 0 0.03525,0.0614 0.70869769,0.70869769 0 0 0 0.04119,0.0576 0.70869769,0.70869769 0 0 0 0.04677,0.0532 0.70869769,0.70869769 0 0 0 0.05182,0.0483 0.70869769,0.70869769 0 0 0 0.0564,0.0429 0.70869769,0.70869769 0 0 0 0.06039,0.037 0.70869769,0.70869769 0 0 0 0.06377,0.0308 0.70869769,0.70869769 0 0 0 0.06658,0.0243 0.70869769,0.70869769 0 0 0 0.0686,0.0175 0.70869769,0.70869769 0 0 0 0.07005,0.0105 0.70869769,0.70869769 0 0 0 0.05464,0.003 h 0.0392 1.395475 v 3.0343 a 0.66015676,0.66015676 0 0 0 0,0.003 0.66015676,0.66015676 0 0 0 0,0.003 v 0.001 a 0.66015676,0.66015676 0 0 0 0.0015,0.0428 0.66015676,0.66015676 0 0 0 0.0013,0.009 0.66015676,0.66015676 0 0 0 0.0041,0.0336 0.66015676,0.66015676 0 0 0 0.0027,0.0227 0.66015676,0.66015676 0 0 0 0.0021,0.009 0.66015676,0.66015676 0 0 0 0.0073,0.0326 0.66015676,0.66015676 0 0 0 0.0051,0.0225 0.66015676,0.66015676 0 0 0 0.003,0.009 0.66015676,0.66015676 0 0 0 0.01042,0.0315 0.66015676,0.66015676 0 0 0 0.0073,0.0221 0.66015676,0.66015676 0 0 0 0.004,0.009 0.66015676,0.66015676 0 0 0 0.01381,0.0308 0.66015676,0.66015676 0 0 0 0.0093,0.0207 0.66015676,0.66015676 0 0 0 0.0045,0.008 0.66015676,0.66015676 0 0 0 0.01724,0.0301 0.66015676,0.66015676 0 0 0 0.01104,0.0193 0.66015676,0.66015676 0 0 0 0.0055,0.008 0.66015676,0.66015676 0 0 0 0.0196,0.0274 0.66015676,0.66015676 0 0 0 0.01335,0.0186 0.66015676,0.66015676 0 0 0 0.0062,0.007 0.66015676,0.66015676 0 0 0 0.02198,0.025 0.66015676,0.66015676 0 0 0 0.01532,0.0174 0.66015676,0.66015676 0 0 0 0.0071,0.007 0.66015676,0.66015676 0 0 0 0.02399,0.0224 0.66015676,0.66015676 0 0 0 0.01724,0.016 0.66015676,0.66015676 0 0 0 0.0078,0.006 0.66015676,0.66015676 0 0 0 0.02597,0.0197 0.66015676,0.66015676 0 0 0 0.01875,0.0143 0.66015676,0.66015676 0 0 0 0.0082,0.005 0.66015676,0.66015676 0 0 0 0.02879,0.0176 0.66015676,0.66015676 0 0 0 0.0013,0.001 0.66015676,0.66015676 0 0 0 0.334913,0.0922 0.66015676,0.66015676 0 0 0 0.336565,-0.0931 0.66015676,0.66015676 0 0 0 0.02012,-0.0115 0.66015676,0.66015676 0 0 0 0.0078,-0.006 0.66015676,0.66015676 0 0 0 0.02728,-0.0195 0.66015676,0.66015676 0 0 0 0.01855,-0.0132 0.66015676,0.66015676 0 0 0 0.0071,-0.006 0.66015676,0.66015676 0 0 0 0.02504,-0.022 0.66015676,0.66015676 0 0 0 0.01742,-0.0153 0.66015676,0.66015676 0 0 0 0.0066,-0.007 0.66015676,0.66015676 0 0 0 0.02238,-0.024 0.66015676,0.66015676 0 0 0 0.01603,-0.0172 0.66015676,0.66015676 0 0 0 0.0059,-0.008 0.66015676,0.66015676 0 0 0 0.01973,-0.026 0.66015676,0.66015676 0 0 0 0.01426,-0.0187 0.66015676,0.66015676 0 0 0 0.0051,-0.008 0.66015676,0.66015676 0 0 0 0.01731,-0.0282 0.66015676,0.66015676 0 0 0 0.01216,-0.0198 0.66015676,0.66015676 0 0 0 0.0042,-0.009 0.66015676,0.66015676 0 0 0 0.01423,-0.0295 0.66015676,0.66015676 0 0 0 0.01029,-0.0213 0.66015676,0.66015676 0 0 0 0.0034,-0.009 0.66015676,0.66015676 0 0 0 0.01129,-0.0309 0.66015676,0.66015676 0 0 0 0.0079,-0.0219 0.66015676,0.66015676 0 0 0 0.0024,-0.009 0.66015676,0.66015676 0 0 0 0.0083,-0.0327 0.66015676,0.66015676 0 0 0 0.0057,-0.0222 0.66015676,0.66015676 0 0 0 0.0015,-0.01 0.66015676,0.66015676 0 0 0 0.005,-0.0326 0.66015676,0.66015676 0 0 0 0.0035,-0.0231 0.66015676,0.66015676 0 0 0 0.0013,-0.01 0.66015676,0.66015676 0 0 0 0.0029,-0.0557 0.66015676,0.66015676 0 0 0 0,-10e-4 0.66015676,0.66015676 0 0 0 0,-0.001 v -2.0419 -0.93436 -1.46708 h -2.629288 z"
           style="font-style:normal;font-variant:normal;font-weight:normal;font-stretch:normal;font-size:403.475px;line-height:1.25;font-family:Nulshock;-inkscape-font-specification:Nulshock;letter-spacing:0px;word-spacing:0px;fill:#1a1a1a;fill-opacity:1;stroke:none;stroke-width:0.170009" />
      </g>
    </g>
    <text
       xml:space="preserve"
       style="font-style:normal;font-weight:normal;font-size:7.47918px;line-height:1.25;font-family:sans-serif;fill:#4d4d4d;fill-opacity:1;stroke:none;stroke-width:0.186979"
       x="64.083427"
       y="293.4556"
       id="text14180"><tspan
         sodipodi:role="line"
         id="tspan14178"
         x="64.083427"
         y="293.4556"
         style="font-style:normal;font-variant:normal;font-weight:normal;font-stretch:normal;font-family:Bahnschrift;-inkscape-font-specification:Bahnschrift;fill:#4d4d4d;stroke-width:0.186979"><tspan
   style="fill:#eeb725;fill-opacity:1"
   id="tspan14743">+ </tspan>Velocidad   <tspan
   style="fill:#eeb725;fill-opacity:1"
   id="tspan14763">+ </tspan>Internet</tspan></text>
  </g>
</svg>
